name processed_emg_signals
nRows=83
nColumns=7
 
endheader
time	LGLTMED	LRF	LADDLONG	LBF	LTA	LGM
7.52	0.063016610205246	0.0235467721270812	0.0715116844588892	0.0738673587545964	0.0169353102137633	0.0193974008894691
7.529999999999999	0.0516092567675153	0.0081110901221337	0.0864746841731435	0.0796165514351893	0.0287785358432644	0.0098784099233614
7.539999999999999	0.0401722025507283	0.0073204701408471	0.1014577525385085	0.0854303663358973	0.0406949765795189	0.0003128526906287
7.549999999999999	0.028711331950657	0.0227390473459723	0.1164525748147409	0.0913057868319602	0.0526792882697333	0.0092946269699125
7.559999999999999	0.0172325423873273	0.0381357912529999	0.1314508409971921	0.0972397281910073	0.0647260863486497	0.0189393474854101
7.5699999999999985	0.0057417369652014	0.0535018741927805	0.1464442577391116	0.1032290416873126	0.0768299531561727	0.0286165950845371
7.579999999999998	0.0057551827529007	0.0688285024683747	0.1614245602108367	0.109270518765759	0.0889854452501998	0.0383216293218757
7.589999999999998	0.0172523238347351	0.0841069276325033	0.1763835238628682	0.1153608952372608	0.1011871006939752	0.0480496885752134
7.599999999999998	0.0287438089090396	0.0993284576136536	0.1913129760610543	0.1214968554881815	0.1134294462988614	0.0577959955005957
7.609999999999998	0.0402237829180407	0.1144844676644527	0.2062048075626313	0.1276750366870835	0.1257070048046706	0.067555762431333
7.619999999999997	0.0516864196749251	0.1295664111075349	0.2210509838028125	0.1338920329729511	0.1380143019805701	0.0773241967089071
7.629999999999997	0.0631259282113294	0.1445658298561543	0.2358435559624653	0.1401443996099723	0.1503458736306779	0.0870965059364433
7.639999999999997	0.0745365589024114	0.1594743646894031	0.2505746717883554	0.1464286570953236	0.1626962724897307	0.0968679031476076
7.649999999999997	0.0859126093588585	0.1742837652646409	0.265236586138203	0.1527412952082678	0.1750600749955154	0.1066336118857423
7.659999999999997	0.097248430077371	0.1889858998519605	0.2798216712233742	0.1590787769913775	0.1874318879264122	0.1163888711890796
7.669999999999996	0.1085384298425386	0.2035727647770435	0.2943224265228069	0.1654375426574438	0.199806354893883	0.1261289404785019
7.679999999999996	0.1197770808749988	0.21803649355941	0.308731488343461	0.1718140134176315	0.2121781626812009	0.1358491043447334
7.689999999999996	0.1309589237226432	0.2323693657339344	0.3230416390044868	0.1782045952273742	0.2245420474208447	0.1455446772320112
7.699999999999996	0.1420785718936767	0.246563815344335	0.3372458156250928	0.1846056824468439	0.2368928006035945	0.1552110080158192
7.7099999999999955	0.1531307162318778	0.2606124390993951	0.3513371184984002	0.1910136614130988	0.2492252749127925	0.1648434844729087
7.719999999999995	0.1641101290356984	0.2745080041848095	0.3653088190361019	0.1974249139218999	0.2615343898779055	0.1744375376429873
7.729999999999995	0.175011667923972	0.2882434557261759	0.3791543672706722	0.2038358206184638	0.2738151373421312	0.1839886460826669
7.739999999999995	0.1858302794520828	0.3018119239006193	0.3928673989038285	0.2102427642979984	0.286062586739737	0.1934923400133892
7.749999999999995	0.196561002483971	0.3152067306961186	0.4064417418913533	0.2166421331182214	0.2982718901793677	0.2029442053655609
7.7599999999999945	0.2071989713263691	0.3284213963186023	0.4198714225555932	0.2230303237272282	0.3104382873297582	0.2123398877212659
7.769999999999994	0.2177394186328181	0.3414496452475743	0.4331506712180082	0.2294037443107849	0.3225571101042476	0.2216750961576409
7.779999999999994	0.2281776780858851	0.3542854119417417	0.4462739273453718	0.2357588175639108	0.334623787140277	0.2309456069928596
7.789999999999994	0.2385091868671827	0.3669228461964087	0.4592358442038615	0.242091983592068	0.3466338480695911	0.2401472674363715
7.799999999999994	0.2487294879261895	0.3793563181544608	0.4720312930162287	0.2483997027481132	0.358582927574571	0.2492759991448252
7.809999999999993	0.258834232060227	0.3915804229724931	0.4846553666180073	0.2546784584117031	0.370466769225496	0.2583278016853019
7.819999999999993	0.2688191798186654	0.4035899851432251	0.4971033826094996	0.2609247597181026	0.3822812290934877	0.2672987559073966
7.829999999999993	0.2786802032448412	0.4153800624753298	0.5093708860011869	0.2671351442433544	0.3940222791336731	0.2761850272261792
7.839999999999993	0.2884132874693138	0.4269459497317818	0.5214536513513989	0.2733061806526324	0.4056860103337153	0.2849828688183707
7.8499999999999925	0.2980145321679686	0.4382831819280104	0.533347684396734	0.2794344713183355	0.4172686356231938	0.2936886247343819
7.859999999999992	0.307480152898379	0.4493875372906878	0.5450492231780434	0.2855166549143695	0.428766492539413	0.3022987329289946
7.869999999999992	0.3168064823276801	0.4602550398774753	0.5565547386672407	0.2915494089930406	0.4401760456446961	0.310809728213555
7.879999999999992	0.3259899713650063	0.4708819618568886	0.56786093490276	0.2975294525509183	0.4514938886898148	0.3192182451322882
7.889999999999992	0.3350271902115228	0.4812648254466785	0.5789647486431402	0.3034535485898306	0.4627167465175512	0.3275210207651353
7.8999999999999915	0.3439148293405356	0.4914004045079406	0.5898633485492714	0.3093185066787692	0.4738414767000468	0.3357148974591545
7.909999999999991	0.3526497004198504	0.5012857257915608	0.6005541339061367	0.3151211855217931	0.4848650709039016	0.3437968254900921
7.919999999999991	0.3612287371877612	0.510918069833171	0.6110347328961029	0.3208584955362716	0.4957846559779423	0.3517638656555648
7.929999999999991	0.3696489962934192	0.5202949714924668	0.6213030004372803	0.3265274014449699	0.5065974947607914	0.3596131918008349
7.939999999999991	0.3779076581115878	0.5294142201331467	0.631357015602352	0.3321249248844158	0.5173009866071276	0.3673420932783097
7.94999999999999	0.3860020275410349	0.538273859440006	0.6411950786344282	0.3376481470312724	0.5278926676326898	0.3749479773415951
7.95999999999999	0.3939295347951238	0.5468721868705698	0.6508157075769264	0.3430942112475764	0.5383702106781149	0.3824283714749353
7.96999999999999	0.4016877361924292	0.5552077527397684	0.6602176345348816	0.3484603257450348	0.5487314249916063	0.3897809256582922
7.97999999999999	0.4092743149546112	0.5632793589372171	0.6693998015851823	0.3537437662677387	0.5589742556307761	0.3970034145677764
7.9899999999999896	0.4166870820180706	0.57108605727837	0.6783613563530038	0.358941878791856	0.569096782585188	0.4040937397104609
7.999999999999989	0.4239239768648883	0.5786271474931859	0.6871016472709363	0.3640520822399045	0.5790972196226164	0.4110499314919516
8.00999999999999	0.4309830683776843	0.5859021748598109	0.6956202185362609	0.3690718712061779	0.5889739128635241	0.4178701512150785
8.019999999999989	0.4378625557216261	0.5929109274959288	0.7039168047806044	0.373998818688872	0.5987253390892056	0.4245526930079491
8.029999999999989	0.4445607692557095	0.5996534333253714	0.7119913254650079	0.378830578823674	0.6083501037893616	0.4310959856794196
8.039999999999988	0.4510761714739782	0.6061299567412433	0.7198438790122358	0.3835648896129537	0.6178469389552685	0.4374985944995934
8.049999999999988	0.4574073579761445	0.6123409949886284	0.7274747366875874	0.3881995756444663	0.627214700626305	0.4437592229022036
8.059999999999988	0.4635530584657263	0.6182872742900737	0.7348843362391144	0.3927325507931938	0.6364523662002494	0.449876714104678
8.069999999999988	0.4695121377728535	0.6239697457364302	0.7420732753085457	0.397161820899665	0.6455590315207902	0.4558500526402897
8.079999999999988	0.4752835968978096	0.6293895809644062	0.749042304624915	0.4014854864175805	0.6545339077573378	0.4616783657955738
8.089999999999987	0.480866574070649	0.6345481676406614	0.7557923209947348	0.4057017450232384	0.6633763180921821	0.4673609249446528
8.099999999999987	0.4862603458211014	0.6394471047706248	0.7623243601056878	0.4098088941790253	0.6720856942296186	0.4728971467709277
8.109999999999987	0.4914643280519312	0.6440881978484337	0.7686395891647994	0.4138053336428855	0.6806615727414915	0.4782865943652274
8.119999999999987	0.4964780771074586	0.6484734538625321	0.7747392993963402	0.4176895679153766	0.6891035912642731	0.4835289781886623
8.129999999999987	0.5013012908275984	0.6526050761702593	0.7806248984289261	0.4214602086150804	0.6974114845632736	0.4886241568878753
8.139999999999986	0.5059338095761202	0.6564854592535381	0.7862979026044405	0.4251159767724086	0.7055850804794188	0.4935721379500085
8.149999999999986	0.5103756172306991	0.6601171833670417	0.7917599292434179	0.428655705031137	0.7136242957735942	0.4983730781845106
8.159999999999986	0.5146268421210549	0.6635030090888212	0.7970126889027525	0.4320783397463532	0.7215291318827093	0.5030272840184149
8.169999999999986	0.5186877579007542	0.6666458717818821	0.8020579776614183	0.4353829429672865	0.7292996706010605	0.5075352115912733
8.179999999999986	0.5225587843376053	0.6695488759732736	0.8068976694689678	0.438568694292916	0.7369360697007403	0.5118974666354477
8.189999999999985	0.5262404880070133	0.6722152896558007	0.8115337085899234	0.4416348925880584	0.7444385585051593	0.516114804127325
8.199999999999985	0.5297335828721347	0.6746485385163615	0.8159681021756052	0.4445809575470154	0.751807433430094	0.5201881276953388
8.209999999999985	0.533038930734272	0.6768522000944921	0.8202029129934163	0.4474064310913228	0.7590430535061152	0.5241184887709507
8.219999999999985	0.5361575415363427	0.6788299978741529	0.8242402523419249	0.4501109785873902	0.7661458358951808	0.5279070854690839
8.229999999999984	0.5390905735016173	0.6805857953109804	0.8280822731782945	0.4526943898693559	0.7731162514129378	0.5315552611843168
8.239999999999984	0.5418393330891088	0.6821235897962726	0.8317311634826599	0.4551565800521931	0.7799548200675589	0.535064502889278
8.249999999999984	0.5444052747465296	0.6834475065581178	0.8351891398823156	0.4574975901202624	0.7866621066258541	0.5384364391220072
8.259999999999984	0.5467900004423337	0.6845617924996178	0.8384584415567233	0.4597175872769027	0.7932387162176174	0.5416728376504265
8.269999999999984	0.5489952589606623	0.6854708099735762	0.8415413244430343	0.4618168650411915	0.7996852899896472	0.5447756028043506
8.279999999999983	0.5510229449459981	0.6861790304929681	0.8444400557601792	0.4637958430797637	0.8060025008213191	0.5477467724680044
8.289999999999983	0.5528750976877925	0.6866910283777097	0.8471569088683161	0.4656550667639998	0.8121910491140925	0.5505885147283389
8.299999999999983	0.5545538996383718	0.6870114743401778	0.8496941584785728	0.4673952064462545	0.81825165866771	0.5533031241760203
8.309999999999983	0.5560616746601227	0.6871451290147114	0.8520540762261314	0.4690170564514404	0.8241850726562178	0.5558930178577436
8.319999999999983	0.5574008859998547	0.6870968364381195	0.8542389266176089	0.4705215337824611	0.8299920497167591	0.5583607308804494
8.329999999999982	0.5585741339894149	0.6868715174896102	0.8562509633619239	0.4719096765399556	0.8356733601641642	0.5607089116707275
8.339999999999982	0.559584153472356	0.6864741632999415	0.8580924260926492	0.4731826420586724	0.8412297823444917	0.5629403168956609
